<svg width="1024" height="860" viewBox="0 0 1024 860" fill="none" xmlns="http://www.w3.org/2000/svg">
<path d="M737.28 247.517C737.28 263.438 713.382 269.621 704.241 256.586C655.072 186.478 584.486 132.483 501.981 104.096C495.784 101.964 491.52 96.1961 491.52 89.6431V15C491.52 6.71574 498.236 0 506.52 0H722.28C730.564 0 737.28 6.71573 737.28 15V247.517Z" fill="white"/>
<path d="M368.64 122.857C572.234 122.857 737.28 287.872 737.28 491.429C737.28 493.069 737.301 494.707 737.28 496.343V845C737.28 853.284 730.564 860 722.28 860H506.52C498.236 860 491.52 853.284 491.52 845V491.429C491.52 423.576 436.505 368.571 368.64 368.571C300.775 368.571 245.76 423.576 245.76 491.429C245.76 554.214 292.865 605.998 353.668 613.383C361.892 614.382 368.64 621.001 368.64 629.286V845C368.64 853.284 361.903 860.031 353.625 859.7C156.993 851.824 0 689.957 0 491.429C0 287.872 165.046 122.857 368.64 122.857Z" fill="white"/>
<path d="M1024 737.143C1024 804.995 968.985 860 901.12 860C833.255 860 778.24 804.995 778.24 737.143C778.24 669.291 833.255 614.286 901.12 614.286C968.985 614.286 1024 669.291 1024 737.143Z" fill="white"/>
</svg>
